<svg xmlns="http://www.w3.org/2000/svg" width="644" height="444" class="marks" style="background-color:#fff"><g fill="none" stroke-miterlimit="10" aria-roledescription="group mark container" class="mark-group role-frame root"><path fill="transparent" stroke="#ddd" d="M39.5 10.5h600v400h-600Z" aria-hidden="true" class="background"/><g aria-hidden="true" class="mark-group role-axis"><path d="M39.5 10.5Z" aria-hidden="true" class="background" pointer-events="none"/><g stroke="#ddd" class="mark-rule role-axis-grid" pointer-events="none"><path d="M39.5 410.5h600M39.5 370.5h600M39.5 330.5h600M39.5 290.5h600M39.5 250.5h600M39.5 210.5h600M39.5 170.5h600M39.5 130.5h600M39.5 90.5h600M39.5 50.5h600M39.5 10.5h600"/></g></g><g aria-label="X-axis titled 'A' for a discrete scale with 3 values: X, Y, Z" aria-roledescription="axis" class="mark-group role-axis" pointer-events="none"><path d="M39.5 410.5Z" aria-hidden="true" class="background"/><g stroke="#888" class="mark-rule role-axis-tick"><path d="M139.5 410.5v5M339.5 410.5v5M539.5 410.5v5"/></g><g fill="#000" class="mark-text role-axis-label" font-family="sans-serif" font-size="10" text-anchor="end"><text transform="rotate(-90 279.75 137.75)">X</text><text transform="rotate(-90 379.75 37.75)">Y</text><text transform="rotate(-90 479.75 -62.25)">Z</text></g><path stroke="#888" d="M39.5 410.5h600" class="mark-rule role-axis-domain"/><text fill="#000" class="mark-text role-axis-title" font-family="sans-serif" font-size="11" font-weight="bold" text-anchor="middle" transform="translate(339.5 437.5)">A</text></g><g aria-label="Y-axis titled 'B' for a linear scale with values from 0 to 20" aria-roledescription="axis" class="mark-group role-axis" pointer-events="none"><path d="M39.5 10.5Z" aria-hidden="true" class="background"/><g stroke="#888" class="mark-rule role-axis-tick"><path d="M39.5 410.5h-5M39.5 370.5h-5M39.5 330.5h-5M39.5 290.5h-5M39.5 250.5h-5M39.5 210.5h-5M39.5 170.5h-5M39.5 130.5h-5M39.5 90.5h-5M39.5 50.5h-5M39.5 10.5h-5"/></g><g fill="#000" class="mark-text role-axis-label" font-family="sans-serif" font-size="10" text-anchor="end"><text transform="translate(32.5 413.5)">0</text><text transform="translate(32.5 373.5)">2</text><text transform="translate(32.5 333.5)">4</text><text transform="translate(32.5 293.5)">6</text><text transform="translate(32.5 253.5)">8</text><text transform="translate(32.5 213.5)">10</text><text transform="translate(32.5 173.5)">12</text><text transform="translate(32.5 133.5)">14</text><text transform="translate(32.5 93.5)">16</text><text transform="translate(32.5 53.5)">18</text><text transform="translate(32.5 13.5)">20</text></g><path stroke="#888" d="M39.5 410.5v-400" class="mark-rule role-axis-domain"/><text fill="#000" class="mark-text role-axis-title" font-family="sans-serif" font-size="11" font-weight="bold" text-anchor="middle" transform="rotate(-90 112.5 98)">B</text></g><g fill="#4c78a8" aria-roledescription="rect mark container" class="mark-rect role-mark marks"><path d="M49 310h180v100H49Z" aria-label="A: X; B: 5" aria-roledescription="bar"/><path d="M249 210h180v200H249Z" aria-label="A: Y; B: 10" aria-roledescription="bar"/><path d="M449 10h180v400H449Z" aria-label="A: Z; B: 20" aria-roledescription="bar"/></g></g></svg>