<svg xmlns="http://www.w3.org/2000/svg" width="713" height="461" class="marks" style="background-color:#fff"><g fill="none" stroke-miterlimit="10" aria-roledescription="group mark container" class="mark-group role-frame root"><path fill="transparent" stroke="#ddd" d="M51.5 10.5h600v400h-600Z" aria-hidden="true" class="background"/><g aria-roledescription="rect mark container" class="mark-rect role-mark marks"><path fill="#134B85" d="M51 10h200v133.333H51Z" aria-label="v1: one; v2: one; cor: 1" aria-roledescription="rect mark"/><path fill="#7DB6D6" d="M51 276.667h200V410H51Z" aria-label="v1: one; v2: two; cor: 0.5" aria-roledescription="rect mark"/><path fill="#B8D8E8" d="M51 143.333h200v133.334H51Z" aria-label="v1: one; v2: three; cor: 0.3" aria-roledescription="rect mark"/><path fill="#7DB6D6" d="M451 10h200v133.333H451Z" aria-label="v1: two; v2: one; cor: 0.5" aria-roledescription="rect mark"/><path fill="#134B85" d="M451 276.667h200V410H451Z" aria-label="v1: two; v2: two; cor: 1" aria-roledescription="rect mark"/><path fill="#CF554C" d="M451 143.333h200v133.334H451Z" aria-label="v1: two; v2: three; cor: −0.7" aria-roledescription="rect mark"/><path fill="#B8D8E8" d="M251 10h200v133.333H251Z" aria-label="v1: three; v2: one; cor: 0.3" aria-roledescription="rect mark"/><path fill="#CF554C" d="M251 276.667h200V410H251Z" aria-label="v1: three; v2: two; cor: −0.7" aria-roledescription="rect mark"/><path fill="#134B85" d="M251 143.333h200v133.334H251Z" aria-label="v1: three; v2: three; cor: 1" aria-roledescription="rect mark"/></g><g aria-label="Gradient legend titled 'cor' for fill color with values from −1.0 to 1.0" aria-roledescription="legend" class="mark-group role-legend"><path d="M669 10h39v216h-39Z" aria-hidden="true" class="background" pointer-events="none"/><g class="mark-group role-legend-entry" pointer-events="none"><path d="M669 26Z" aria-hidden="true" class="background"/><path fill="url(https://vega.github.io/editor/#gradient_1)" d="M0 0h16v200H0Z" class="mark-rect role-legend-gradient" transform="translate(669 26)"/><g fill="#000" class="mark-text role-legend-label" font-family="sans-serif" font-size="10"><text transform="translate(687 224)">−1.0</text><text transform="translate(687 179)">−0.5</text><text transform="translate(687 129)">0.0</text><text transform="translate(687 79)">0.5</text><text transform="translate(687 34)">1.0</text></g></g><text fill="#000" class="mark-text role-legend-title" font-family="sans-serif" font-size="11" font-weight="bold" pointer-events="none" transform="translate(669 19)">cor</text></g><g aria-hidden="true" class="mark-group role-axis"><path d="M51.5 410.5Z" aria-hidden="true" class="background" pointer-events="none"/><g stroke="#ddd" class="mark-rule role-axis-grid" pointer-events="none"><path d="M251.5 410.5v-400M451.5 410.5v-400M651.5 410.5v-400M51.5 410.5v-400"/></g></g><g aria-hidden="true" class="mark-group role-axis"><path d="M51.5 10.5Z" aria-hidden="true" class="background" pointer-events="none"/><g stroke="#ddd" class="mark-rule role-axis-grid" pointer-events="none"><path d="M51.5 143.5h600M51.5 277.5h600M51.5 410.5h600M51.5 10.5h600"/></g></g><g aria-label="X-axis titled 'v1' for a discrete scale with 3 values: one, three, two" aria-roledescription="axis" class="mark-group role-axis" pointer-events="none"><path d="M51.5 410.5Z" aria-hidden="true" class="background"/><g stroke="#888" class="mark-rule role-axis-tick"><path d="M251.5 410.5v5M451.5 410.5v5M651.5 410.5v5M51.5 410.5v5"/></g><g fill="#000" class="mark-text role-axis-label" font-family="sans-serif" font-size="10" text-anchor="end"><text transform="rotate(-90 286 131.5)">one</text><text transform="rotate(-90 386 31.5)">three</text><text transform="rotate(-90 486 -68.5)">two</text></g><path stroke="#888" d="M51.5 410.5h600" class="mark-rule role-axis-domain"/><text fill="#000" class="mark-text role-axis-title" font-family="sans-serif" font-size="11" font-weight="bold" text-anchor="middle" transform="translate(351.5 454.5)">v1</text></g><g aria-label="Y-axis titled 'v2' for a discrete scale with 3 values: one, three, two" aria-roledescription="axis" class="mark-group role-axis" pointer-events="none"><path d="M51.5 10.5Z" aria-hidden="true" class="background"/><g stroke="#888" class="mark-rule role-axis-tick"><path d="M51.5 143.5h-5M51.5 277.5h-5M51.5 410.5h-5M51.5 10.5h-5"/></g><g fill="#000" class="mark-text role-axis-label" font-family="sans-serif" font-size="10" text-anchor="end"><text transform="translate(44.5 80.167)">one</text><text transform="translate(44.5 213.5)">three</text><text transform="translate(44.5 346.833)">two</text></g><path stroke="#888" d="M51.5 10.5v400" class="mark-rule role-axis-domain"/><text fill="#000" class="mark-text role-axis-title" font-family="sans-serif" font-size="11" font-weight="bold" text-anchor="middle" transform="rotate(-90 112.5 98)">v2</text></g></g></svg>