<svg xmlns="http://www.w3.org/2000/svg" width="654" height="447" class="marks" style="background-color:#fff"><g fill="none" stroke-miterlimit="10" aria-roledescription="group mark container" class="mark-group role-frame root"><path fill="transparent" stroke="#ddd" d="M48.5 10.5h600v400h-600Z" aria-hidden="true" class="background"/><g aria-hidden="true" class="mark-group role-axis"><path d="M48.5 410.5Z" aria-hidden="true" class="background" pointer-events="none"/><g stroke="#ddd" class="mark-rule role-axis-grid" pointer-events="none"><path d="M48.5 10.5v400M94.5 10.5v400M140.5 10.5v400M186.5 10.5v400M233.5 10.5v400M279.5 10.5v400M325.5 10.5v400M371.5 10.5v400M417.5 10.5v400M463.5 10.5v400M510.5 10.5v400M556.5 10.5v400M602.5 10.5v400M648.5 10.5v400"/></g></g><g aria-hidden="true" class="mark-group role-axis"><path d="M48.5 10.5Z" aria-hidden="true" class="background" pointer-events="none"/><g stroke="#ddd" class="mark-rule role-axis-grid" pointer-events="none"><path d="M48.5 410.5h600M48.5 370.5h600M48.5 330.5h600M48.5 290.5h600M48.5 250.5h600M48.5 210.5h600M48.5 170.5h600M48.5 130.5h600M48.5 90.5h600M48.5 50.5h600M48.5 10.5h600"/></g></g><g aria-label="X-axis titled 'x' for a linear scale with values from 0 to 7" aria-roledescription="axis" class="mark-group role-axis" pointer-events="none"><path d="M48.5 410.5Z" aria-hidden="true" class="background"/><g stroke="#888" class="mark-rule role-axis-tick"><path d="M48.5 410.5v5M94.5 410.5v5M140.5 410.5v5M186.5 410.5v5M233.5 410.5v5M279.5 410.5v5M325.5 410.5v5M371.5 410.5v5M417.5 410.5v5M463.5 410.5v5M510.5 410.5v5M556.5 410.5v5M602.5 410.5v5M648.5 410.5v5"/></g><g fill="#000" class="mark-text role-axis-label" font-family="sans-serif" font-size="10"><text transform="translate(48.5 425.5)">0.0</text><text text-anchor="middle" transform="translate(94.654 425.5)">0.5</text><text text-anchor="middle" transform="translate(140.808 425.5)">1.0</text><text text-anchor="middle" transform="translate(186.962 425.5)">1.5</text><text text-anchor="middle" transform="translate(233.115 425.5)">2.0</text><text text-anchor="middle" transform="translate(279.27 425.5)">2.5</text><text text-anchor="middle" transform="translate(325.423 425.5)">3.0</text><text text-anchor="middle" transform="translate(371.577 425.5)">3.5</text><text text-anchor="middle" transform="translate(417.73 425.5)">4.0</text><text text-anchor="middle" transform="translate(463.885 425.5)">4.5</text><text text-anchor="middle" transform="translate(510.038 425.5)">5.0</text><text text-anchor="middle" transform="translate(556.192 425.5)">5.5</text><text text-anchor="middle" transform="translate(602.346 425.5)">6.0</text><text text-anchor="end" transform="translate(648.5 425.5)">6.5</text></g><path stroke="#888" d="M48.5 410.5h600" class="mark-rule role-axis-domain"/><text fill="#000" class="mark-text role-axis-title" font-family="sans-serif" font-size="11" font-weight="bold" text-anchor="middle" transform="translate(348.5 440.5)">x</text></g><g aria-label="Y-axis titled 'sine(x)' for a linear scale with values from −1.0 to 1.0" aria-roledescription="axis" class="mark-group role-axis" pointer-events="none"><path d="M48.5 10.5Z" aria-hidden="true" class="background"/><g stroke="#888" class="mark-rule role-axis-tick"><path d="M48.5 410.5h-5M48.5 370.5h-5M48.5 330.5h-5M48.5 290.5h-5M48.5 250.5h-5M48.5 210.5h-5M48.5 170.5h-5M48.5 130.5h-5M48.5 90.5h-5M48.5 50.5h-5M48.5 10.5h-5"/></g><g fill="#000" class="mark-text role-axis-label" font-family="sans-serif" font-size="10" text-anchor="end"><text transform="translate(41.5 413.5)">−1.0</text><text transform="translate(41.5 373.5)">−0.8</text><text transform="translate(41.5 333.5)">−0.6</text><text transform="translate(41.5 293.5)">−0.4</text><text transform="translate(41.5 253.5)">−0.2</text><text transform="translate(41.5 213.5)">0.0</text><text transform="translate(41.5 173.5)">0.2</text><text transform="translate(41.5 133.5)">0.4</text><text transform="translate(41.5 93.5)">0.6</text><text transform="translate(41.5 53.5)">0.8</text><text transform="translate(41.5 13.5)">1.0</text></g><path stroke="#888" d="M48.5 410.5v-400" class="mark-rule role-axis-domain"/><text fill="#000" class="mark-text role-axis-title" font-family="sans-serif" font-size="11" font-weight="bold" text-anchor="middle" transform="rotate(-90 112.5 98)">sine(x)</text></g><g aria-roledescription="line mark container"><path stroke="#4c78a8" stroke-width="2" d="m48.58 208.743.58-1.256.58-1.257.58-1.256.58-1.256.58-1.256.58-1.256.58-1.255.58-1.255.58-1.254.58-1.254.58-1.253.58-1.253.58-1.252.58-1.252.58-1.25.58-1.25.58-1.249.58-1.248.58-1.248.58-1.246.58-1.245.58-1.244.58-1.243.58-1.242.58-1.24.58-1.24.58-1.238.58-1.236.58-1.235.58-1.234.58-1.232.58-1.231.58-1.228.58-1.228.58-1.225.579-1.224.58-1.222.58-1.22.58-1.218.58-1.216.58-1.214.58-1.212.58-1.21.58-1.208.58-1.206.58-1.203.58-1.201.58-1.199.58-1.196.58-1.194.58-1.192.58-1.189.58-1.186.58-1.184.58-1.181.58-1.178.58-1.175.58-1.173.58-1.17.58-1.167.58-1.164.58-1.161.58-1.158.58-1.155.58-1.151.58-1.149.58-1.145.58-1.142.58-1.139.58-1.135.58-1.132.58-1.129.58-1.125.58-1.121.58-1.118.58-1.114.58-1.111.58-1.107.58-1.103.58-1.099.58-1.095.58-1.092.58-1.088.58-1.083.58-1.08.58-1.075.58-1.072.58-1.067.58-1.063.58-1.059.58-1.055.58-1.05.58-1.046.58-1.042.58-1.037.58-1.032.58-1.029.58-1.023.58-1.019.58-1.014.58-1.01.58-1.005.58-1 .58-.995.58-.991.58-.986.58-.98.58-.976.579-.971.58-.966.58-.96.58-.956.58-.95.58-.945.58-.94.58-.935.58-.93.58-.924.58-.918.58-.914.58-.908.58-.902.58-.897.58-.891.58-.886.58-.88.58-.875.58-.869.58-.863.58-.857.58-.852.58-.845.58-.84.58-.834.58-.828.58-.822.58-.817.58-.81.58-.804.58-.798.58-.791.58-.786.58-.78.58-.773.58-.767.58-.761.58-.754.58-.749.58-.741.58-.736.58-.729.58-.722.58-.717.58-.709.58-.703.58-.697.58-.69.58-.683.58-.677.58-.67.58-.663.58-.656.58-.65.58-.643.58-.637.58-.629.58-.623.58-.615.58-.609.58-.602.58-.595.58-.588.58-.581.58-.574.58-.567.58-.56.58-.553.58-.546.58-.538.58-.532.58-.524.579-.517.58-.51.58-.503.58-.495.58-.489.58-.48.58-.474.58-.466.58-.459.58-.452.58-.444.58-.437.58-.429.58-.422.58-.415.58-.407.58-.399.58-.392.58-.385.58-.377.58-.369.58-.362.58-.355.58-.347.58-.339.58-.331.58-.324.58-.317.58-.308.58-.301.58-.294.58-.285.58-.278.58-.271.58-.262.58-.255.58-.247.58-.239.58-.232.58-.224.58-.216.58-.208.58-.201.58-.192.58-.185.58-.177.58-.17.58-.161.58-.154.58-.145.58-.138.58-.13.58-.122.58-.115.58-.106.58-.099.58-.091.58-.082.58-.075.58-.067.58-.06.58-.051.58-.043.58-.036.58-.027.58-.02.58-.012.58-.004.58.004.58.012.58.02.58.027.58.036.58.043.579.051.58.06.58.067.58.075.58.082.58.091.58.099.58.106.58.115.58.122.58.13.58.138.58.145.58.154.58.161.58.17.58.177.58.185.58.192.58.201.58.208.58.216.58.224.58.232.58.239.58.247.58.255.58.262.58.271.58.278.58.285.58.294.58.301.58.308.58.317.58.324.58.331.58.339.58.347.58.355.58.362.58.369.58.377.58.385.58.392.58.399.58.407.58.415.58.422.58.429.58.437.58.444.58.452.58.459.58.466.58.474.58.48.58.489.58.495.58.503.58.51.58.517.58.524.58.532.58.538.58.546.58.553.58.56.58.567.58.574.58.581.58.588.58.595.579.602.58.609.58.615.58.623.58.629.58.637.58.643.58.65.58.656.58.663.58.67.58.677.58.683.58.69.58.697.58.703.58.709.58.717.58.722.58.729.58.736.58.741.58.749.58.754.58.761.58.767.58.773.58.78.58.786.58.791.58.798.58.804.58.81.58.817.58.822.58.828.58.834.58.84.58.845.58.852.58.857.58.863.58.869.58.875.58.88.58.886.58.891.58.897.58.902.58.908.58.914.58.918.58.924.58.93.58.935.58.94.58.945.58.95.58.956.58.96.58.966.58.971.58.976.58.98.58.986.58.991.58.995.58 1 .58 1.005.58 1.01.58 1.014.58 1.019.58 1.023.579 1.029.58 1.032.58 1.037.58 1.042.58 1.046.58 1.05.58 1.055.58 1.059.58 1.063.58 1.067.58 1.072.58 1.075.58 1.08.58 1.083.58 1.088.58 1.092.58 1.095.58 1.099.58 1.103.58 1.107.58 1.111.58 1.114.58 1.118.58 1.121.58 1.125.58 1.129.58 1.132.58 1.135.58 1.139.58 1.142.58 1.145.58 1.149.58 1.151.58 1.155.58 1.158.58 1.161.58 1.164.58 1.167.58 1.17.58 1.173.58 1.175.58 1.178.58 1.181.58 1.184.58 1.186.58 1.189.58 1.192.58 1.194.58 1.196.58 1.199.58 1.201.58 1.203.58 1.206.58 1.208.58 1.21.58 1.212.58 1.214.58 1.216.58 1.218.58 1.22.58 1.222.58 1.224.58 1.225.58 1.228.58 1.228.58 1.231.58 1.232.58 1.234.58 1.235.58 1.236.58 1.238.58 1.24.58 1.24.579 1.242.58 1.243.58 1.244.58 1.245.58 1.246.58 1.248.58 1.248.58 1.249.58 1.25.58 1.25.58 1.252.58 1.252.58 1.253.58 1.253.58 1.254.58 1.254.58 1.255.58 1.255.58 1.256.58 1.256.58 1.256.58 1.256.58 1.257.58 1.256.58 1.257.58 1.257.58 1.256.58 1.257.58 1.256.58 1.256.58 1.256.58 1.256.58 1.255.58 1.255.58 1.254.58 1.254.58 1.253.58 1.253.58 1.252.58 1.252.58 1.25.58 1.25.58 1.249.58 1.248.58 1.248.58 1.246.58 1.245.58 1.244.58 1.243.58 1.242.58 1.24.58 1.24.58 1.238.58 1.236.58 1.235.58 1.234.58 1.232.58 1.231.58 1.228.58 1.228.58 1.225.58 1.224.58 1.222.58 1.22.58 1.218.58 1.216.58 1.214.58 1.212.58 1.21.58 1.208.58 1.206.58 1.203.58 1.201.579 1.199.58 1.196.58 1.194.58 1.192.58 1.189.58 1.186.58 1.184.58 1.181.58 1.178.58 1.175.58 1.173.58 1.17.58 1.167.58 1.164.58 1.161.58 1.158.58 1.155.58 1.151.58 1.149.58 1.145.58 1.142.58 1.139.58 1.135.58 1.132.58 1.129.58 1.125.58 1.121.58 1.118.58 1.114.58 1.111.58 1.107.58 1.103.58 1.099.58 1.095.58 1.092.58 1.088.58 1.083.58 1.08.58 1.075.58 1.072.58 1.067.58 1.063.58 1.059.58 1.055.58 1.05.58 1.046.58 1.042.58 1.037.58 1.032.58 1.029.58 1.023.58 1.019.58 1.014.58 1.01.58 1.005.58 1 .58.995.58.991.58.986.58.98.58.976.58.971.58.966.58.96.58.956.58.95.58.945.58.94.58.935.58.93.58.924.58.918.58.914.58.908.579.902.58.897.58.891.58.886.58.88.58.875.58.869.58.863.58.857.58.852.58.845.58.84.58.834.58.828.58.822.58.817.58.81.58.804.58.798.58.791.58.786.58.78.58.773.58.767.58.761.58.754.58.749.58.741.58.736.58.729.58.722.58.717.58.709.58.703.58.697.58.69.58.683.58.677.58.67.58.663.58.656.58.65.58.643.58.637.58.629.58.623.58.615.58.609.58.602.58.595.58.588.58.581.58.574.58.567.58.56.58.553.58.546.58.538.58.532.58.524.58.517.58.51.58.503.58.495.58.489.58.48.58.474.58.466.58.459.58.452.58.444.58.437.58.429.579.422.58.415.58.407.58.399.58.392.58.385.58.377.58.369.58.362.58.355.58.347.58.339.58.331.58.324.58.317.58.308.58.301.58.294.58.285.58.278.58.271.58.262.58.255.58.247.58.239.58.232.58.224.58.216.58.208.58.201.58.192.58.185.58.177.58.17.58.161.58.154.58.145.58.138.58.13.58.122.58.115.58.106.58.099.58.091.58.082.58.075.58.067.58.06.58.051.58.043.58.036.58.027.58.02.58.012.58.004.58-.004.58-.012.58-.02.58-.027.58-.036.58-.043.58-.051.58-.06.58-.067.58-.075.58-.082.58-.091.58-.099.58-.106.58-.115.58-.122.58-.13.58-.138.579-.145.58-.154.58-.161.58-.17.58-.177.58-.185.58-.192.58-.201.58-.208.58-.216.58-.224.58-.232.58-.239.58-.247.58-.255.58-.262.58-.271.58-.278.58-.285.58-.294.58-.301.58-.308.58-.317.58-.324.58-.331.58-.339.58-.347.58-.355.58-.362.58-.369.58-.377.58-.385.58-.392.58-.399.58-.407.58-.415.58-.422.58-.429.58-.437.58-.444.58-.452.58-.459.58-.466.58-.474.58-.48.58-.489.58-.495.58-.503.58-.51.58-.517.58-.524.58-.532.58-.538.58-.546.58-.553.58-.56.58-.567.58-.574.58-.581.58-.588.58-.595.58-.602.58-.609.58-.615.58-.623.58-.629.58-.637.58-.643.58-.65.58-.656.58-.663.58-.67.58-.677.579-.683.58-.69.58-.697.58-.703.58-.709.58-.717.58-.722.58-.729.58-.736.58-.741.58-.749.58-.754.58-.761.58-.767.58-.773.58-.78.58-.786.58-.791.58-.798.58-.804.58-.81.58-.817.58-.822.58-.828.58-.834.58-.84.58-.845.58-.852.58-.857.58-.863.58-.869.58-.875.58-.88.58-.886.58-.891.58-.897.58-.902.58-.908.58-.914.58-.918.58-.924.58-.93.58-.935.58-.94.58-.945.58-.95.58-.956.58-.96.58-.966.58-.971.58-.976.58-.98.58-.986.58-.991.58-.995.58-1 .58-1.005.58-1.01.58-1.014.58-1.019.58-1.023.58-1.029.58-1.032.58-1.037.58-1.042.58-1.046.58-1.05.58-1.055.58-1.059.58-1.063.58-1.067.58-1.072.58-1.075.579-1.08.58-1.083.58-1.088.58-1.092.58-1.095.58-1.099.58-1.103.58-1.107.58-1.111.58-1.114.58-1.118.58-1.121.58-1.125.58-1.129.58-1.132.58-1.135.58-1.139.58-1.142.58-1.145.58-1.149.58-1.151.58-1.155.58-1.158.58-1.161.58-1.164.58-1.167.58-1.17.58-1.173.58-1.175.58-1.178.58-1.181.58-1.184.58-1.186.58-1.189.58-1.192.58-1.194.58-1.196.58-1.199.58-1.201.58-1.203.58-1.206.58-1.208.58-1.21.58-1.212.58-1.214.58-1.216.58-1.218.58-1.22.58-1.222.58-1.224.58-1.225.58-1.228.58-1.228.58-1.231.58-1.232.58-1.234.58-1.235.58-1.236.58-1.238.58-1.24.58-1.24.58-1.242.58-1.243.58-1.244.58-1.245.58-1.246.58-1.248.58-1.248.58-1.249.58-1.25.58-1.25.58-1.252.58-1.252.58-1.253.579-1.253.58-1.254.58-1.254.58-1.255.58-1.255.58-1.256.58-1.256.58-1.256.58-1.256.58-1.257.58-1.256.58-1.257" aria-label="x: 0.00628318530718; sine(x): 0.00628314396556" aria-roledescription="line mark" class="mark-line role-mark marks"/></g></g></svg>